<svg width="96" height="17" viewBox="0 0 96 17" fill="none" xmlns="http://www.w3.org/2000/svg">
<path d="M0.179688 2.59766C0.179688 2.26953 0.242188 1.96094 0.367188 1.67188C0.492188 1.375 0.664062 1.12109 0.882812 0.910156C1.10156 0.691406 1.35547 0.519531 1.64453 0.394531C1.94141 0.261719 2.25391 0.195312 2.58203 0.195312H11.6992C12.0273 0.195312 12.3359 0.261719 12.625 0.394531C12.9219 0.519531 13.1797 0.691406 13.3984 0.910156C13.6172 1.12109 13.7891 1.375 13.9141 1.67188C14.0391 1.96094 14.1016 2.26953 14.1016 2.59766V4.76562H11.6992V2.59766H2.58203V14.5977H11.6992V12.4414H14.1016V14.5977C14.1016 14.9258 14.0391 15.2383 13.9141 15.5352C13.7891 15.8242 13.6172 16.0781 13.3984 16.2969C13.1797 16.5156 12.9219 16.6875 12.625 16.8125C12.3359 16.9375 12.0273 17 11.6992 17H2.58203C2.25391 17 1.94141 16.9375 1.64453 16.8125C1.35547 16.6875 1.10156 16.5156 0.882812 16.2969C0.664062 16.0781 0.492188 15.8242 0.367188 15.5352C0.242188 15.2383 0.179688 14.9258 0.179688 14.5977V2.59766ZM28.5039 14.6914C28.5039 15.0117 28.4414 15.3125 28.3164 15.5938C28.1992 15.875 28.0352 16.1211 27.8242 16.332C27.6211 16.5352 27.3789 16.6992 27.0977 16.8242C26.8242 16.9414 26.5273 17 26.207 17H20.0078C19.6953 17 19.3984 16.9414 19.1172 16.8242C18.8359 16.6992 18.5898 16.5352 18.3789 16.332C18.1758 16.1211 18.0117 15.875 17.8867 15.5938C17.7695 15.3125 17.7109 15.0117 17.7109 14.6914V6.82812C17.7109 6.50781 17.7695 6.20703 17.8867 5.92578C18.0117 5.64453 18.1758 5.40234 18.3789 5.19922C18.5898 4.98828 18.8359 4.82422 19.1172 4.70703C19.3984 4.58203 19.6953 4.51953 20.0078 4.51953H26.207C26.5273 4.51953 26.8242 4.58203 27.0977 4.70703C27.3789 4.82422 27.6211 4.98828 27.8242 5.19922C28.0352 5.40234 28.1992 5.64453 28.3164 5.92578C28.4414 6.20703 28.5039 6.50781 28.5039 6.82812V14.6914ZM20.0078 6.82812V14.6914H26.207V6.82812H20.0078ZM42.25 6.82812V17H39.9414V6.82812H34.6562V17H32.3594V4.51953H34.6562V6.72266C34.6719 6.41797 34.7422 6.13281 34.8672 5.86719C34.9922 5.59375 35.1562 5.35938 35.3594 5.16406C35.5703 4.96094 35.8125 4.80469 36.0859 4.69531C36.3594 4.57812 36.6523 4.51953 36.9648 4.51953H39.9414C40.2461 4.51953 40.5352 4.57812 40.8086 4.69531C41.082 4.80469 41.3242 4.96094 41.5352 5.16406C41.7461 5.35938 41.9141 5.59375 42.0391 5.86719C42.1719 6.13281 42.2422 6.41797 42.25 6.72266C42.2656 6.41797 42.332 6.13281 42.4492 5.86719C42.5742 5.59375 42.7383 5.35938 42.9414 5.16406C43.1523 4.96094 43.3945 4.80469 43.668 4.69531C43.9414 4.57812 44.2344 4.51953 44.5469 4.51953H47.5234C47.8438 4.51953 48.1445 4.58203 48.4258 4.70703C48.707 4.82422 48.9492 4.98828 49.1523 5.19922C49.3633 5.40234 49.5273 5.64453 49.6445 5.92578C49.7695 6.20703 49.832 6.50781 49.832 6.82812V17H47.5234V6.82812H42.25ZM64.8672 8.23438C65.2188 8.34375 65.5391 8.5 65.8281 8.70312C66.1172 8.90625 66.3633 9.16797 66.5664 9.48828C66.7695 9.80078 66.9258 10.1719 67.0352 10.6016C67.1445 11.0312 67.1992 11.5234 67.1992 12.0781V12.9219C67.1992 15.6406 65.8398 17 63.1211 17H53.9219V0.195312H62.6406C65.3594 0.195312 66.7188 1.55859 66.7188 4.28516V4.58984C66.7188 5.53516 66.5664 6.30859 66.2617 6.91016C65.9648 7.50391 65.5 7.94531 64.8672 8.23438ZM56.2773 9.67578V14.6445H63.0508C63.6836 14.6445 64.1406 14.4961 64.4219 14.1992C64.7031 13.9023 64.8438 13.4375 64.8438 12.8047V11.5039C64.8438 10.8633 64.7031 10.3984 64.4219 10.1094C64.1406 9.82031 63.6836 9.67578 63.0508 9.67578H56.2773ZM56.2773 2.55078V7.33203H62.7344C63.3125 7.30859 63.7266 7.15234 63.9766 6.86328C64.2344 6.56641 64.3633 6.11328 64.3633 5.50391V4.40234C64.3633 3.76172 64.2227 3.29297 63.9414 2.99609C63.6602 2.69922 63.2031 2.55078 62.5703 2.55078H56.2773ZM70.5625 4.51953H72.8594V14.6914H79.293V4.51953H81.6016V17H79.293V14.8906C79.2695 15.1797 79.1914 15.4531 79.0586 15.7109C78.9258 15.9688 78.7539 16.1953 78.543 16.3906C78.3398 16.5781 78.1055 16.7266 77.8398 16.8359C77.5742 16.9453 77.293 17 76.9961 17H72.8594C72.5469 17 72.25 16.9414 71.9688 16.8242C71.6875 16.6992 71.4414 16.5352 71.2305 16.332C71.0273 16.1211 70.8633 15.875 70.7383 15.5938C70.6211 15.3125 70.5625 15.0117 70.5625 14.6914V4.51953ZM92.9805 14.6914V11.7969H87.5078C87.1875 11.7969 86.8867 11.7383 86.6055 11.6211C86.3242 11.4961 86.0781 11.332 85.8672 11.1289C85.6641 10.918 85.5 10.6719 85.375 10.3906C85.2578 10.1094 85.1992 9.80859 85.1992 9.48828V6.82812C85.1992 6.50781 85.2578 6.20703 85.375 5.92578C85.5 5.64453 85.6641 5.40234 85.8672 5.19922C86.0781 4.98828 86.3242 4.82422 86.6055 4.70703C86.8867 4.58203 87.1875 4.51953 87.5078 4.51953H94.8086V6.82812H87.5078V9.48828H92.9805C93.3008 9.48828 93.5977 9.55078 93.8711 9.67578C94.1523 9.79297 94.3984 9.95703 94.6094 10.168C94.8203 10.3711 94.9844 10.6133 95.1016 10.8945C95.2266 11.1758 95.2891 11.4766 95.2891 11.7969V14.6914C95.2891 15.0117 95.2266 15.3125 95.1016 15.5938C94.9844 15.875 94.8203 16.1211 94.6094 16.332C94.3984 16.5352 94.1523 16.6992 93.8711 16.8242C93.5977 16.9414 93.3008 17 92.9805 17H85.1992V14.6914H92.9805Z" fill="black"/>
</svg>
